<svg width="40" height="40" viewBox="0 0 40 40" fill="none" xmlns="http://www.w3.org/2000/svg">
  <rect width="40" height="40" rx="10" fill="#1F2937"/>
  <rect x="7" y="10" width="18" height="7" rx="2.5" fill="#2496ED"/>
  <rect x="7" y="19" width="12" height="6" rx="2.5" fill="#2496ED"/>
  <rect x="21" y="19" width="12" height="6" rx="2.5" fill="#2496ED"/>
  <rect x="13" y="27" width="14" height="4" rx="2" fill="#2496ED"/>
  <path d="M27 12.5C29.7614 12.5 32 14.7386 32 17.5C32 20.2614 29.7614 22.5 27 22.5C24.2386 22.5 22 20.2614 22 17.5C22 14.7386 24.2386 12.5 27 12.5Z" fill="#F9FAFB"/>
  <path d="M25.5 15.5H28.5C29.0523 15.5 29.5 15.9477 29.5 16.5V18.5C29.5 19.0523 29.0523 19.5 28.5 19.5H25.5C24.9477 19.5 24.5 19.0523 24.5 18.5V16.5C24.5 15.9477 24.9477 15.5 25.5 15.5Z" fill="#1F2937"/>
  <path d="M27 16.75C27.6904 16.75 28.25 17.3096 28.25 18C28.25 18.6904 27.6904 19.25 27 19.25C26.3096 19.25 25.75 18.6904 25.75 18C25.75 17.3096 26.3096 16.75 27 16.75Z" fill="#F59E0B"/>
</svg>
