<svg width="13" height="13" viewBox="0 0 13 13" fill="none" xmlns="http://www.w3.org/2000/svg">
  <g transform="translate(0.5 1.5) scale(0.1)">
    <path d="M121.68,33.34c-0.34-0.28-3.42-2.62-10.03-2.62c-1.71,0-3.48,0.17-5.19,0.46c-1.25-8.72-8.49-12.94-8.78-13.16l-1.77-1.03l-1.14,1.65c-1.42,2.22-2.51,4.73-3.13,7.29c-1.2,4.96-0.46,9.63,2.05,13.62c-3.02,1.71-7.92,2.11-8.95,2.17l-80.93,0c-2.11,0-3.82,1.71-3.82,3.82c-0.11,7.07,1.08,14.13,3.53,20.8c2.79,7.29,6.95,12.71,12.31,16.01c6.04,3.7,15.9,5.81,27.01,5.81c5.01,0,10.03-0.46,14.99-1.37c6.9-1.25,13.51-3.65,19.6-7.12c5.02-2.91,9.52-6.61,13.34-10.94c6.44-7.24,10.26-15.33,13.05-22.51c0.4,0,0.74,0,1.14,0c7.01,0,11.34-2.79,13.73-5.19c1.6-1.48,2.79-3.31,3.65-5.36l0.51-1.48L121.68,33.34L121.68,33.34z" stroke="#6B7280" stroke-width="10" stroke-linejoin="round"/>
    <path d="M56.49 0.97H67.32V10.66H56.49zM26.28 13.9H37.11V24.56H26.28zM41.5 13.9H52.33V24.56H41.5zM56.49 13.9H67.32V24.56H56.49zM11.35 27.75H22.18V38.41H11.35zM26.28 27.75H37.11V38.41H26.28zM41.5 27.75H52.33V38.41H41.5zM56.49 27.75H67.32V38.41H56.49zM71.59 27.75H82.42V38.41H71.59z" fill="#6B7280"/>
  </g>
</svg>
