<svg width="13" height="13" viewBox="0 0 13 13" fill="none" xmlns="http://www.w3.org/2000/svg">
  <rect x="1" y="3" width="5" height="2" rx="0.7" fill="#4FB3FF"/>
  <rect x="1" y="5.6" width="3.8" height="1.8" rx="0.7" fill="#4FB3FF"/>
  <rect x="5.2" y="5.6" width="3.8" height="1.8" rx="0.7" fill="#4FB3FF"/>
  <rect x="3.1" y="8" width="4.2" height="1.4" rx="0.7" fill="#4FB3FF"/>
  <path d="M9.6 2.2C10.9255 2.2 12 3.27452 12 4.6C12 5.92548 10.9255 7 9.6 7C8.27452 7 7.2 5.92548 7.2 4.6C7.2 3.27452 8.27452 2.2 9.6 2.2Z" fill="#F9FAFB"/>
  <path d="M8.7 3.7H10.5C10.8314 3.7 11.1 3.96863 11.1 4.3V5C11.1 5.33137 10.8314 5.6 10.5 5.6H8.7C8.36863 5.6 8.1 5.33137 8.1 5V4.3C8.1 3.96863 8.36863 3.7 8.7 3.7Z" fill="#111827"/>
  <circle cx="9.6" cy="4.65" r="0.55" fill="#FBBF24"/>
</svg>
